<svg xmlns="http://www.w3.org/2000/svg" viewBox="0 0 1200 800" role="img" aria-labelledby="title desc">
  <title id="title">Студенти за ноутбуками</title>
  <desc id="desc">Тепла ілюстрація аудиторії з кількома студентами за роботою.</desc>
  <defs>
    <linearGradient id="bg" x1="0" y1="0" x2="1" y2="1">
      <stop offset="0%" stop-color="#f6c27a"/>
      <stop offset="100%" stop-color="#d96b4b"/>
    </linearGradient>
  </defs>
  <rect width="1200" height="800" fill="url(#bg)"/>
  <circle cx="990" cy="140" r="92" fill="#fff3d6" opacity="0.6"/>
  <rect x="110" y="470" width="980" height="170" rx="28" fill="#f8efe2" opacity="0.85"/>
  <rect x="180" y="380" width="210" height="130" rx="18" fill="#2f4858"/>
  <rect x="442" y="350" width="230" height="160" rx="18" fill="#3b5b6c"/>
  <rect x="722" y="392" width="220" height="118" rx="18" fill="#2f4858"/>
  <circle cx="284" cy="317" r="56" fill="#f2c7a5"/>
  <circle cx="555" cy="282" r="60" fill="#efb98f"/>
  <circle cx="832" cy="324" r="54" fill="#f2c7a5"/>
  <path d="M226 250c20-44 47-63 92-63 41 0 65 17 81 56-10 11-20 16-34 16H261c-16 0-28-3-35-9z" fill="#1f2937"/>
  <path d="M496 219c20-47 48-69 93-69 42 0 70 19 86 59-12 13-24 19-39 19H532c-18 0-28-3-36-9z" fill="#1f2937"/>
  <path d="M765 257c20-44 45-62 88-62 41 0 66 16 83 56-11 11-21 16-34 16H800c-16 0-27-3-35-10z" fill="#1f2937"/>
  <rect x="256" y="541" width="54" height="128" rx="20" fill="#6c4f3d"/>
  <rect x="545" y="522" width="56" height="147" rx="20" fill="#6c4f3d"/>
  <rect x="822" y="546" width="54" height="125" rx="20" fill="#6c4f3d"/>
  <rect x="206" y="535" width="184" height="34" rx="17" fill="#8ec5c1"/>
  <rect x="482" y="513" width="200" height="36" rx="18" fill="#f8d08a"/>
  <rect x="762" y="536" width="188" height="33" rx="16" fill="#8ec5c1"/>
  <path d="M0 708h1200v92H0z" fill="#1f2937" opacity="0.12"/>
</svg>
